G75*
%MOIN*%
%OFA0B0*%
%FSLAX24Y24*%
%IPPOS*%
%LPD*%
%AMOC8*
5,1,8,0,0,1.08239X$1,22.5*
%
%ADD10OC8,0.0600*%
%ADD11C,0.0396*%
%ADD12C,0.0100*%
D10*
X004100Y005225D03*
X005100Y005225D03*
X006100Y005225D03*
X007100Y005225D03*
X008100Y005225D03*
X009100Y005225D03*
X010100Y005225D03*
X011100Y005225D03*
X012100Y005225D03*
X013100Y005225D03*
X014100Y005225D03*
X015100Y005225D03*
X016100Y005225D03*
X017100Y005225D03*
X018100Y005225D03*
X018100Y006225D03*
X017100Y006225D03*
X016100Y006225D03*
X015100Y006225D03*
X014100Y006225D03*
X013100Y006225D03*
X012100Y006225D03*
X011100Y006225D03*
X010100Y006225D03*
X009100Y006225D03*
X008100Y006225D03*
X007100Y006225D03*
X006100Y006225D03*
X005100Y006225D03*
X004100Y006225D03*
X001975Y006100D03*
X000975Y006100D03*
D11*
X002553Y003643D03*
X003143Y003053D03*
X018104Y002659D03*
X018694Y001675D03*
D12*
X002061Y001675D02*
X000978Y002757D01*
X000978Y006097D01*
X000975Y006100D01*
X002946Y004037D02*
X002553Y003643D01*
X002946Y004037D02*
X015939Y004037D01*
X016100Y004198D01*
X016100Y005225D01*
X017100Y005225D02*
X017100Y004017D01*
X016529Y003446D01*
X003537Y003446D01*
X003143Y003053D01*
X002061Y001675D02*
X018694Y001675D01*
X018104Y002659D02*
X018104Y004431D01*
X017612Y004923D01*
X017612Y005710D01*
X016615Y005710D01*
X016100Y006225D01*
M02*
