%
M48
M72
T01C0.0236
T02C0.0400
%
T01
X3143Y3053
X2553Y3643
X18104Y2659
X18694Y1675
T02
X18100Y5225
X17100Y5225
X16100Y5225
X15100Y5225
X14100Y5225
X13100Y5225
X12100Y5225
X11100Y5225
X10100Y5225
X9100Y5225
X8100Y5225
X7100Y5225
X6100Y5225
X5100Y5225
X4100Y5225
X1975Y6100
X975Y6100
X4100Y6225
X5100Y6225
X6100Y6225
X7100Y6225
X8100Y6225
X9100Y6225
X10100Y6225
X11100Y6225
X12100Y6225
X13100Y6225
X14100Y6225
X15100Y6225
X16100Y6225
X17100Y6225
X18100Y6225
M30
