G75*
%MOIN*%
%OFA0B0*%
%FSLAX24Y24*%
%IPPOS*%
%LPD*%
%AMOC8*
5,1,8,0,0,1.08239X$1,22.5*
%
%ADD10C,0.0000*%
%ADD11C,0.0040*%
%ADD12C,0.0060*%
%ADD13C,0.0050*%
D10*
X000100Y000100D02*
X000100Y007596D01*
X019100Y007600D01*
X019100Y000100D01*
X000100Y000100D01*
D11*
X000898Y005072D02*
X000898Y005379D01*
X000745Y005225D02*
X001052Y005225D01*
X001870Y005288D02*
X002177Y005288D01*
D12*
X002225Y005600D02*
X000725Y005600D01*
X000475Y005850D01*
X000475Y006350D01*
X000725Y006600D01*
X002225Y006600D01*
X002475Y006350D01*
X002475Y005850D01*
X002225Y005600D01*
X003600Y004975D02*
X003600Y006475D01*
X003850Y006725D01*
X007350Y006725D01*
X007600Y006475D01*
X007600Y004975D01*
X007350Y004725D01*
X003850Y004725D01*
X003600Y004975D01*
X004850Y004725D02*
X005350Y004725D01*
X005850Y004725D02*
X006350Y004725D01*
X007600Y004975D02*
X007600Y006475D01*
X007850Y006725D01*
X015350Y006725D01*
X015600Y006475D01*
X015600Y004975D01*
X015850Y004725D01*
X018350Y004725D01*
X018600Y004975D01*
X018600Y006475D01*
X018350Y006725D01*
X015850Y006725D01*
X015600Y006475D01*
X015600Y004975D01*
X015350Y004725D01*
X007850Y004725D01*
X007600Y004975D01*
X008850Y004725D02*
X009350Y004725D01*
X009850Y004725D02*
X010350Y004725D01*
X010850Y004725D02*
X011350Y004725D01*
X011850Y004725D02*
X012350Y004725D01*
X012850Y004725D02*
X013350Y004725D01*
X013850Y004725D02*
X014350Y004725D01*
X016850Y004725D02*
X017350Y004725D01*
X014350Y006725D02*
X013850Y006725D01*
X013350Y006725D02*
X012850Y006725D01*
X012350Y006725D02*
X011850Y006725D01*
X011350Y006725D02*
X010850Y006725D01*
X010350Y006725D02*
X009850Y006725D01*
X009350Y006725D02*
X008850Y006725D01*
X006350Y006725D02*
X005850Y006725D01*
X005350Y006725D02*
X004850Y006725D01*
D13*
X004729Y006875D02*
X004729Y007325D01*
X004579Y007325D02*
X004879Y007325D01*
X005040Y007175D02*
X005190Y007325D01*
X005340Y007175D01*
X005340Y006875D01*
X005040Y006875D02*
X005040Y007175D01*
X005040Y007100D02*
X005340Y007100D01*
X004419Y007100D02*
X004119Y007100D01*
X004119Y007175D02*
X004269Y007325D01*
X004419Y007175D01*
X004419Y006875D01*
X004119Y006875D02*
X004119Y007175D01*
X003959Y007250D02*
X003884Y007325D01*
X003658Y007325D01*
X003658Y006875D01*
X003884Y006875D01*
X003959Y006950D01*
X003959Y007250D01*
X001691Y007095D02*
X001616Y007170D01*
X001466Y007170D01*
X001391Y007095D01*
X001391Y006795D01*
X001466Y006720D01*
X001616Y006720D01*
X001691Y006795D01*
X001231Y006795D02*
X001156Y006720D01*
X001005Y006720D01*
X000930Y006795D01*
X000930Y007095D01*
X001005Y007170D01*
X001156Y007170D01*
X001231Y007095D01*
X000770Y007170D02*
X000770Y006870D01*
X000620Y006720D01*
X000470Y006870D01*
X000470Y007170D01*
X008033Y007175D02*
X008033Y006875D01*
X008334Y006875D02*
X008334Y007175D01*
X008184Y007325D01*
X008033Y007175D01*
X008033Y007100D02*
X008334Y007100D01*
X008719Y006875D02*
X008794Y006950D01*
X008794Y007250D01*
X008719Y007325D01*
X008494Y007325D01*
X008494Y006875D01*
X008719Y006875D01*
X008954Y006875D02*
X009179Y006875D01*
X009254Y006950D01*
X009254Y007250D01*
X009179Y007325D01*
X008954Y007325D01*
X008954Y006875D01*
X009415Y006875D02*
X009415Y007325D01*
X009640Y007325D01*
X009715Y007250D01*
X009715Y007100D01*
X009640Y007025D01*
X009415Y007025D01*
X009565Y007025D02*
X009715Y006875D01*
X015783Y006950D02*
X015858Y006875D01*
X016009Y006875D01*
X016084Y006950D01*
X015783Y006950D02*
X015783Y007250D01*
X015858Y007325D01*
X016009Y007325D01*
X016084Y007250D01*
X016244Y007325D02*
X016544Y007325D01*
X016394Y007325D02*
X016394Y006875D01*
X016704Y006875D02*
X016704Y007325D01*
X016929Y007325D01*
X017004Y007250D01*
X017004Y007100D01*
X016929Y007025D01*
X016704Y007025D01*
X016854Y007025D02*
X017004Y006875D01*
X017165Y006875D02*
X017465Y006875D01*
X017165Y006875D02*
X017165Y007325D01*
M02*
